<svg viewBox="0 0 512 512" xmlns="http://www.w3.org/2000/svg" fill-rule="evenodd" clip-rule="evenodd" stroke-linejoin="round" stroke-miterlimit="2">
  <path d="M224.6 141.8l29.2-48.4c1.2-3.4 4.5-3.4 5.7 0l29.3 48.4a3.4 3.4 0 004.5 0l19.1-11.2a3.4 3.4 0 014.5 4.5l-13.5 74.3-.2 1a3.4 3.4 0 005.8 2.4l33.8-26a3.4 3.4 0 015.6 1.2l3.4 10.1a3.4 3.4 0 003.4 2.3l42.8-4.5h.2a3.4 3.4 0 013.2 4.5l-14.7 42.8c0 1.5.9 2.9 2.3 3.4l11.2 7.9v5.6l-67.5 63a3.4 3.4 0 00-2.3 3.4l9 20.3a3.4 3.4 0 01-3.3 4.5l-69.9-9c-1.2-.3-2.5.1-3.3 1.1v74.4c0 1.8-1.6 3.3-3.4 3.3H255a3.4 3.4 0 01-3.4-3.4v-70.9-.2a3.4 3.4 0 00-4.5-3.2l-67.6 6.8a3.4 3.4 0 01-4.5-4.5l9-20.3c.6-1 .6-2.3 0-3.4l-72-62a3.4 3.4 0 010-5.5l11.2-8a3.4 3.4 0 002.3-3.3l-13.6-42.8a3.4 3.4 0 013.4-4.5l42.8 4.5c1.5 0 2.9-.8 3.4-2.3l3.4-10a3.4 3.4 0 015.6-1.2l33.8 25.9a3.4 3.4 0 005.6-3.4l-13.5-74.3v-.2a3.4 3.4 0 014.5-3.2l19.2 11.3c1.5.8 3.5.3 4.5-1.2z" fill="#d52b1e" fill-rule="nonzero"/>
  <circle cx="325.5" cy="352.1" r="76.1" fill="#eebf00"/>
  <circle cx="325.5" cy="352.1" r="65.2" fill="#feda44"/>
  <path d="M350.7 359.5a8.2 8.2 0 00-10 6c-.8 3.8-2.1 6.7-4.4 8.6a11.6 11.6 0 01-7.6 2.4 14 14 0 01-7.4-2 10.9 10.9 0 01-4.6-5.7 33 33 0 01-2-12.3c0-3.5.6-7 1.8-10.5.8-2.6 2.3-4.7 4.4-6a14 14 0 018.5-2.4c2.5 0 4.6.6 6.4 1.8 1.9 1.4 3 3.8 4 6.8 1.4 4 5.6 6.5 9.7 5.5l8.9-2a8.2 8.2 0 006-10.4c-2-7.5-6.5-14.2-12.7-19a36 36 0 00-22.2-6.7c-7.4 0-14.3 1.7-20.5 5.1a35.8 35.8 0 00-14.9 15.5 54.8 54.8 0 00-.7 43.9c3 7.3 7.6 12.8 13.6 16.7a40.6 40.6 0 0022.4 5.9c8.3.2 16.5-2.5 23.1-7.7 6.2-5 10.7-12 13.1-21.4a8.2 8.2 0 00-5.8-10l-9.1-2.3v.2z" fill="#333" fill-rule="nonzero"/>
</svg>