<svg width="26" height="30" fill="none" xmlns="http://www.w3.org/2000/svg">
  <path d="M10 4.5L12.6.2c.1-.3.4-.3.5 0l2.6 4.3a.3.3 0 00.4 0l1.7-1a.3.3 0 01.4.4L17 10.5a.3.3 0 00.5.3l3-2.3a.3.3 0 01.5.1l.3.9a.3.3 0 00.3.2l3.8-.4a.3.3 0 01.3.4l-1.3 3.8a.3.3 0 00.2.3l1 .7v.5l-6 5.6a.3.3 0 00-.2.3l.8 1.8a.3.3 0 01-.3.4l-6.2-.8a.3.3 0 00-.3.1V29a.3.3 0 01-.3.3h-.4a.3.3 0 01-.3-.3v-6.3a.3.3 0 00-.4-.3L6 23a.3.3 0 01-.4-.4l.8-1.8a.3.3 0 000-.3L0 15a.3.3 0 010-.5l1-.7a.3.3 0 00.2-.3L0 9.7a.3.3 0 01.3-.4l3.8.4a.3.3 0 00.3-.2l.3-.9a.3.3 0 01.5-.1l3 2.3a.3.3 0 00.5-.3L7.5 3.9a.3.3 0 01.4-.3l1.7 1a.3.3 0 00.4-.1z" fill="#D52B1E"/>
</svg>
